# xmcd CD database file
#
# Track frame offsets:
#	150
#	8792
#	22330
#	36505
#	56850
#	72707
#	86965
#	100460
#	119240
#	132100
#	147515
#	175255
#	189130
#	207890
#	220680
#	232835
#
# Disc length: 3670 seconds
#
# Revision: 4
# Processed by: cddbd v1.5.1PL0 Copyright (c) Steve Scherf et al.
# Submitted via: CDex 1.51
#
DISCID=f90e5410
DTITLE=Various Artist - Blues and Black Jazz Disc2
DYEAR=2000
DGENRE=Jazz
TTITLE0=Ray Charles - Hit the Road Jack
TTITLE1=Kenny Ball and His Jazzmen - Midnight in Moscow
TTITLE2=Carmen McRae - Sunshine of MyLIfe
TTITLE3=Ella Fitzgerald and Louis Armstrong - A Foggy Day
TTITLE4=Ahmed Jamal - But Not For Me
TTITLE5=Bobby Darin - Mack the Knife
TTITLE6=Doris Day - Till the End of Time
TTITLE7=Nora Simone - I love
TTITLE8=Ted Heath and his Orchrestra - Swinging Shepherd Blues
TTITLE9=Louis Armstrong - La Vie en Rose
TTITLE10=Sarah Vaughan - Altie
TTITLE11=Ella Fitzgerald - A Man and a Woman
TTITLE12=Sunny Stitt - In a Sentimental Mood
TTITLE13=Bob Fogu and His Ensemble - Diamonds are a Girl's Best Friend
TTITLE14=Nat King Cole - Dance Ballerina Dance
TTITLE15=Lionel Hampton - Han Hoch Blues
EXTD=YEAR: 2000
EXTT0=
EXTT1=
EXTT2=
EXTT3=
EXTT4=
EXTT5=
EXTT6=
EXTT7=
EXTT8=
EXTT9=
EXTT10=
EXTT11=
EXTT12=
EXTT13=
EXTT14=
EXTT15=
PLAYORDER=
